<svg width="31" height="27" viewBox="0 0 31 27" fill="none" xmlns="http://www.w3.org/2000/svg">
<path d="M22.1749 0.866943C20.7673 0.888107 19.3904 1.26793 18.1833 1.96806C16.9762 2.66819 15.9816 3.66384 15.2999 4.85444C14.6182 3.66384 13.6235 2.66819 12.4164 1.96806C11.2093 1.26793 9.83244 0.888107 8.42488 0.866943C6.18105 0.961182 4.06701 1.91004 2.5446 3.50622C1.0222 5.10241 0.215186 7.21616 0.299875 9.38569C0.299875 14.88 6.28237 20.8806 11.2999 24.949C12.4201 25.8591 13.8366 26.358 15.2999 26.358C16.7632 26.358 18.1796 25.8591 19.2999 24.949C24.3174 20.8806 30.2999 14.88 30.2999 9.38569C30.3846 7.21616 29.5776 5.10241 28.0551 3.50622C26.5327 1.91004 24.4187 0.961182 22.1749 0.866943ZM17.6936 23.1003C17.0236 23.6457 16.1758 23.9448 15.2999 23.9448C14.4239 23.9448 13.5761 23.6457 12.9061 23.1003C6.48362 17.8912 2.79987 12.8935 2.79987 9.38569C2.71443 7.85681 3.25783 6.35728 4.31158 5.21416C5.36532 4.07104 6.84392 3.37707 8.42488 3.28361C10.0058 3.37707 11.4844 4.07104 12.5382 5.21416C13.5919 6.35728 14.1353 7.85681 14.0499 9.38569C14.0499 9.70616 14.1816 10.0135 14.416 10.2401C14.6504 10.4667 14.9684 10.594 15.2999 10.594C15.6314 10.594 15.9493 10.4667 16.1838 10.2401C16.4182 10.0135 16.5499 9.70616 16.5499 9.38569C16.4644 7.85681 17.0078 6.35728 18.0616 5.21416C19.1153 4.07104 20.5939 3.37707 22.1749 3.28361C23.7558 3.37707 25.2344 4.07104 26.2882 5.21416C27.3419 6.35728 27.8853 7.85681 27.7999 9.38569C27.7999 12.8935 24.1161 17.8912 17.6936 23.0954V23.1003Z" fill="white"/>
</svg>
