<svg width="55" height="55" viewBox="0 0 55 55" fill="none" xmlns="http://www.w3.org/2000/svg">
<g clip-path="url(#clip0_1_48)">
<path d="M51.2852 27.1742H33.5716L35.8591 37.6147H50.1708L51.2852 27.1742ZM21.3715 27.1742H3.65795L4.77239 37.6147H19.084L21.3715 27.1742V27.1742ZM54.5112 24.1242C54.9024 24.5543 55.0588 25.0235 54.9804 25.5319L53.4554 39.6089C53.2463 40.5293 52.5902 41.2388 51.6957 41.2512H34.4514C33.5241 41.1896 32.9096 40.608 32.7505 39.7849L29.9938 27.5262C28.5021 26.5971 26.5405 26.7325 24.9495 27.4088L22.1928 39.7849C21.9741 40.6764 21.3378 41.2409 20.4918 41.2512H3.24738C2.27727 41.1745 1.62942 40.4748 1.54641 39.6089L0.0213532 25.5319C-0.0568384 24.9845 0.0800199 24.5153 0.431928 24.1242L20.257 13.9184C21.208 13.4942 22.1498 13.9016 22.5445 14.7395C22.8756 15.6966 22.6606 16.7868 21.7821 17.203L9.2301 22.8925H45.5371L32.9851 17.203C32.054 16.6751 31.8131 15.6121 32.1639 14.7395C32.6617 13.8467 33.6702 13.5503 34.5101 13.9183L54.5112 24.1242V24.1242Z" fill="#777777"/>
</g>
<defs>
<clipPath id="clip0_1_48">
<rect width="55" height="55" fill="white"/>
</clipPath>
</defs>
</svg>
