<svg width="55" height="55" viewBox="0 0 55 55" fill="none" xmlns="http://www.w3.org/2000/svg">
<path d="M48.125 6.875C48.7328 6.875 49.3157 7.11644 49.7455 7.54621C50.1753 7.97598 50.4167 8.55888 50.4167 9.16667V25.2083C50.4167 25.8161 50.1753 26.399 49.7455 26.8288C49.3157 27.2586 48.7328 27.5 48.125 27.5H43.5394L43.5417 45.8333C43.5417 46.4411 43.3003 47.024 42.8705 47.4538C42.4407 47.8836 41.8578 48.125 41.25 48.125H13.75C13.1423 48.125 12.5594 47.8836 12.1296 47.4538C11.6998 47.024 11.4584 46.4411 11.4584 45.8333L11.4561 27.4977L6.87504 27.5C6.26725 27.5 5.68436 27.2586 5.25459 26.8288C4.82482 26.399 4.58337 25.8161 4.58337 25.2083V9.16667C4.58337 8.55888 4.82482 7.97598 5.25459 7.54621C5.68436 7.11644 6.26725 6.875 6.87504 6.875H20.625C20.625 8.69836 21.3494 10.447 22.6387 11.7364C23.928 13.0257 25.6767 13.75 27.5 13.75C29.3234 13.75 31.0721 13.0257 32.3614 11.7364C33.6507 10.447 34.375 8.69836 34.375 6.875H48.125Z" fill="#FFC83A"/>
</svg>
