<svg width="55" height="55" viewBox="0 0 55 55" fill="none" xmlns="http://www.w3.org/2000/svg">
<path d="M13.75 38.8163V43.6769L11.5936 45.8333H6.73522L13.7477 38.8163H13.75ZM50.4213 33.0802V37.9431L42.5333 45.8333H41.2363V42.2652L50.4213 33.0802ZM20.0521 32.0833H34.9365C35.9433 32.0834 36.9133 32.4622 37.6537 33.1445C38.3942 33.8268 38.8509 34.7626 38.9331 35.766L38.9469 36.0938V45.8333H35.5094V36.0938C35.5092 35.9647 35.4654 35.8395 35.3851 35.7384C35.3048 35.6373 35.1928 35.5663 35.0671 35.5369L34.9365 35.5208H20.0521C19.9226 35.5205 19.7969 35.5641 19.6953 35.6444C19.5938 35.7247 19.5224 35.8371 19.4929 35.9631L19.4792 36.0938V45.8333H16.0417V36.0938C16.0417 35.0873 16.4202 34.1176 17.102 33.3772C17.7838 32.6369 18.719 32.1799 19.7221 32.0971L20.0521 32.0833ZM18.3815 23.87C18.519 25.1969 18.9383 26.4367 19.58 27.5367L4.58335 42.5333V37.6704L18.3815 23.87ZM50.419 22.7608V27.626L41.2363 36.8156V36.0938L41.2271 35.7088C41.1667 34.6985 40.8624 33.718 40.3402 32.851L50.4167 22.7608H50.419ZM27.6283 9.16667L4.58335 32.2208V27.3602L22.77 9.16667H27.6283ZM50.4213 12.4483V17.3135L37.4344 30.3073C36.8088 30.0361 36.1431 29.8689 35.4636 29.8123L34.9365 29.7917H33.5615C34.3491 29.0985 35.0118 28.2753 35.5208 27.3579L50.4213 12.4483ZM27.5 16.0417C29.3234 16.0417 31.0721 16.766 32.3614 18.0553C33.6507 19.3446 34.375 21.0933 34.375 22.9167C34.375 24.74 33.6507 26.4887 32.3614 27.778C31.0721 29.0673 29.3234 29.7917 27.5 29.7917C25.6767 29.7917 23.928 29.0673 22.6387 27.778C21.3493 26.4887 20.625 24.74 20.625 22.9167C20.625 21.0933 21.3493 19.3446 22.6387 18.0553C23.928 16.766 25.6767 16.0417 27.5 16.0417ZM27.5 19.4792C26.5883 19.4792 25.714 19.8413 25.0693 20.486C24.4247 21.1306 24.0625 22.005 24.0625 22.9167C24.0625 23.8284 24.4247 24.7027 25.0693 25.3474C25.714 25.992 26.5883 26.3542 27.5 26.3542C28.4117 26.3542 29.286 25.992 29.9307 25.3474C30.5754 24.7027 30.9375 23.8284 30.9375 22.9167C30.9375 22.005 30.5754 21.1306 29.9307 20.486C29.286 19.8413 28.4117 19.4792 27.5 19.4792ZM17.3227 9.16667L4.58105 21.9083V17.0454L12.4644 9.16667H17.3227ZM48.2533 9.16667L36.4604 20.9665C36.1968 19.7536 35.6884 18.6073 34.9663 17.5977L43.3927 9.16667H48.2556H48.2533ZM37.9454 9.16667L32.1177 14.9967C30.9949 14.3408 29.7447 13.9329 28.4511 13.8004L33.0871 9.16667H37.9477H37.9454Z" fill="#FFC83A"/>
</svg>
