<svg width="55" height="55" viewBox="0 0 55 55" fill="none" xmlns="http://www.w3.org/2000/svg">
<path d="M11.4584 11.4583C12.0313 14.8958 12.6042 16.6146 13.1771 20.625C13.6354 23.8333 13.75 28.8372 13.75 30.9375C11.267 32.0833 5.72919 34.375 5.72919 38.9583C5.72919 43.5417 11.4584 49.2708 27.5 49.2708C43.5417 49.2708 49.2709 43.5417 49.2709 38.9583C49.2709 34.375 41.25 30.9375 41.25 30.9375C41.25 30.9375 41.25 24.6354 41.8229 20.625C42.3959 16.6146 42.9688 14.8958 43.5417 11.4583" stroke="#FFC83A" stroke-width="4.58333" stroke-linecap="round" stroke-linejoin="round"/>
<path d="M41.25 30.9375C41.25 35.5208 40.1042 40.1042 26.9271 40.1042" stroke="#FFC83A" stroke-width="4.58333" stroke-linecap="round" stroke-linejoin="round"/>
<path d="M27.5 17.1875C36.3596 17.1875 43.5417 14.6225 43.5417 11.4583C43.5417 8.29421 36.3596 5.72917 27.5 5.72917C18.6405 5.72917 11.4584 8.29421 11.4584 11.4583C11.4584 14.6225 18.6405 17.1875 27.5 17.1875Z" stroke="#FFC83A" stroke-width="4.58333"/>
</svg>
